<?xml version="1.0" encoding="UTF-8"?>
<svg xmlns="http://www.w3.org/2000/svg" xmlns:xlink="http://www.w3.org/1999/xlink" width="128px" height="128px" viewBox="0 0 128 128" version="1.1">
<g id="surface1">
<path style=" stroke:none;fill-rule:evenodd;fill:rgb(21.176471%,11.764706%,35.686275%);fill-opacity:1;" d="M 28.082031 33.859375 C 28.082031 33.789062 28.082031 33.71875 28.082031 33.648438 C 28.082031 33.453125 28.078125 33.257812 28.070312 33.066406 C 28.027344 32.121094 27.878906 31.285156 27.667969 30.792969 C 27.640625 30.738281 27.617188 30.6875 27.59375 30.640625 L 14.460938 0.4375 C 14.207031 -0.144531 13.894531 -0.144531 13.640625 0.4375 L 0.417969 30.78125 C 0.164062 31.363281 0.0078125 32.441406 0.0078125 33.605469 L 0 94.34375 C 0 95.507812 0.15625 96.585938 0.410156 97.171875 L 13.625 127.5625 C 13.75 127.847656 13.890625 128 14.035156 128 L 14.050781 128 C 14.195312 128 14.339844 127.847656 14.460938 127.5625 L 27.679688 97.171875 C 27.933594 96.585938 28.089844 95.507812 28.085938 94.34375 Z M 28.082031 33.859375 "/>
<path style=" stroke:none;fill-rule:nonzero;fill:rgb(8.627451%,83.92157%,78.039217%);fill-opacity:1;" d="M 14.042969 7.011719 L 1.640625 35.507812 L 1.640625 92.492188 L 14.042969 120.988281 L 26.445312 92.492188 L 26.445312 35.507812 Z M 14.042969 7.011719 "/>
<path style=" stroke:none;fill-rule:nonzero;fill:rgb(0.784314%,49.803922%,61.960787%);fill-opacity:1;" d="M 26.445312 35.507812 L 26.445312 92.492188 L 14.042969 120.988281 L 14.042969 64.003906 Z M 26.445312 35.507812 "/>
<path style=" stroke:none;fill-rule:nonzero;fill:rgb(9.019608%,65.098041%,69.803923%);fill-opacity:1;" d="M 26.445312 35.507812 L 14.042969 64.003906 L 1.640625 35.507812 L 14.042969 7.011719 Z M 26.445312 35.507812 "/>
</g>
</svg>
