<svg xmlns="http://www.w3.org/2000/svg" width="48" height="48" fill="none" viewBox="0 0 512 512"><defs><clipPath id="a"><rect width="512" height="512" rx="0" ry="0"/></clipPath></defs><g clip-path="url(#a)"><g transform="translate(-33 -22)scale(7.42029)"><path fill="url(#b)" d="M40 68h-8V18h8z"/><path fill="url(#c)" d="M7 16V8h50.5L49 16z"/><path fill="url(#d)" d="m56 63 4.5 4V50.5L42 32v8l14 14z"/><path fill="url(#e)" d="M70.5 16V8L51 27.5l4 4z"/><path stroke="#fff" stroke-width=".5" d="m2 1 5 5h55L42 26v3l20 20h8L48.5 27.5 70 5.5 65 1z"/><path stroke="#fff" stroke-width=".5" d="M40 68h-8V18h8zM7 16V8h50.5L49 16zm19 47.08L30 67V18h-4zM1 11l4 4V7L1 3zm41 7v5l5-5zm28.5 33h-8v17h8zM56 63l4.5 4V50.5L42 32v8l14 14zm14.5-47V8L51 27.5l4 4z"/><defs><linearGradient id="b" x1="35.75" x2="35.75" y1="68" y2="1" gradientUnits="userSpaceOnUse"><stop stop-color="#2F1846"/><stop offset="1" stop-color="#4788C5"/></linearGradient><linearGradient id="c" x1="1" x2="64.995" y1="34.5" y2="34.5" gradientUnits="userSpaceOnUse"><stop stop-color="#4788C5"/><stop offset="1" stop-color="#2F1846"/></linearGradient><linearGradient id="d" x1="35.75" x2="35.75" y1="1" y2="68" gradientUnits="userSpaceOnUse"><stop stop-color="#4788C5"/><stop offset="1" stop-color="#2F1846"/></linearGradient><linearGradient id="e" x1="53" x2="70.5" y1="29.5" y2="12" gradientUnits="userSpaceOnUse"><stop stop-color="#4788C5"/><stop offset="1" stop-color="#2F1846"/></linearGradient></defs></g></g></svg>