<svg xmlns="http://www.w3.org/2000/svg" width="120" height="24" viewBox="0 0 118 24"><path fill='#ffff' d="M12.008 15.574c0 6.153-2.715 8.375-7.93 8.375-1.047 0-2.113-.07-3.14-.222v-4.188c.617.102 1.558.156 2.28.156 2.282 0 3.52-.949 3.52-3.812V1.328h5.27Zm18.637 3.36c0 2.101.085 4.187.12 4.55h-4.718c-.121-.398-.156-1.398-.192-1.843-.855 1.41-2.695 2.289-5.714 2.289-4.375 0-6.145-2.703-6.145-5.305 0-4.258 3.676-5.445 8.395-5.445h3.363v-.516c0-1.328-.567-2.414-2.934-2.414-2.215 0-2.695.848-2.902 1.793h-5.012c.137-2.016 1.528-5.238 7.828-5.238 6.914 0 7.91 3.308 7.91 6.03v6.134Zm-4.891-2.551c-.379-.031-1.477-.031-3.277-.031-2.594 0-3.622.687-3.622 1.996 0 1.07.84 1.949 2.696 1.949 2.812 0 4.203-1.328 4.203-3.637Zm7.984-5.047c0-1.379 0-2.926-.035-4.098h4.89c.067.461.118 1.446.157 2.117.734-1.136 2.195-2.566 5.32-2.566 3.93 0 6.262 2.48 6.262 6.668v10.027H45.27v-9.203c0-1.879-.723-3.531-3.004-3.531-2.282 0-3.5 1.688-3.5 4.637v8.097h-5.028Zm23.684 5.254c.137 2 1.543 3.55 3.965 3.55 1.922 0 2.832-.6 3.43-1.617h5.015c-.965 2.86-3.367 5.391-8.48 5.391-6.524 0-8.891-4.41-8.891-8.547 0-4.582 3.039-8.578 8.855-8.578 6.215 0 8.72 4.36 8.72 8.578 0 .414 0 .707-.036 1.223Zm7.516-3.117c-.102-1.258-.774-3.118-3.637-3.118-2.68 0-3.656 1.48-3.813 3.118ZM96.64.05v18.851c0 1.516 0 3.063.035 4.563H91.73c-.07-.48-.101-1.258-.12-1.895-.876 1.258-2.008 2.325-5.337 2.325-4.445 0-7.757-3.356-7.757-8.422 0-5.48 4.273-8.703 8.238-8.703 3.14 0 4.41 1.085 4.855 1.707V.05ZM83.664 15.387c0 2.566 1.457 4.547 4.082 4.547 2.629 0 4-1.774 4-4.582 0-2.809-1.082-4.618-3.98-4.618-2.762 0-4.102 2.223-4.102 4.633Zm33.398-.035c0 4.996-3.378 8.578-9.32 8.578-5.937 0-8.992-4.067-8.992-8.578 0-4.516 3.156-8.563 9.184-8.563 6.21 0 9.113 4.516 9.113 8.563Zm-13.214 0c0 2.53 1.39 4.738 4.066 4.738 2.68 0 4-2.156 4-4.652 0-2.5-1.219-4.79-4.05-4.79-2.762 0-4.016 2.188-4.016 4.72ZM76.473 5.273c0 1.446-.739 2.688-2.336 2.688-1.559 0-2.367-1.258-2.367-2.738 0-1.485.738-2.727 2.351-2.727 1.649 0 2.367 1.348 2.367 2.777Zm0 0"/></svg>
