<svg xmlns="http://www.w3.org/2000/svg" width="64" height="64"><path fill="#ffff" d="M34.098 16.867v9.512a5.996 5.996 0 0 1 0 11.227v3.792c0 .5-.032 1-.098 1.497 5.305-.961 9.125-5.524 9.125-10.954V7.84Zm0 0v9.512a5.996 5.996 0 0 1 0 11.227v3.792c0 .5-.032 1-.098 1.497 5.305-.961 9.125-5.524 9.125-10.954V7.84ZM31.992 0C14.324 0 0 14.324 0 31.992s14.324 31.992 31.992 31.992S63.984 49.66 63.984 31.992 49.66 0 31.992 0Zm11.563 31.941c0 5.7-4.149 10.547-9.774 11.426l-.07.012a11.35 11.35 0 0 1-22.523-1.98c0-.587.042-1.176.132-1.754l9.457-9.458c-.09.579-.132 1.168-.132 1.754a11.354 11.354 0 0 0 12.878 11.247l.012-.063c.09-.57.133-1.148.133-1.727V37.75a5.995 5.995 0 1 1 0-11.512v-9.156h-18.7l9.458-9.457h19.129Zm-9.457-5.562a5.996 5.996 0 0 1 0 11.227v3.792c0 .5-.032 1-.098 1.497 5.305-.961 9.125-5.524 9.125-10.954V7.84l-9.027 9.027Zm0-9.512v9.512a5.996 5.996 0 0 1 0 11.227v3.792c0 .5-.032 1-.098 1.497 5.305-.961 9.125-5.524 9.125-10.954V7.84Zm0 0"/></svg>
